<?xml version="1.0" encoding="UTF-8" standalone="no"?>
<svg
   xmlns:dc="http://purl.org/dc/elements/1.1/"
   xmlns:cc="http://creativecommons.org/ns#"
   xmlns:rdf="http://www.w3.org/1999/02/22-rdf-syntax-ns#"
   xmlns:svg="http://www.w3.org/2000/svg"
   xmlns="http://www.w3.org/2000/svg"
   id="svg4"
   version="1.1"
   width="1024"
   height="1024">
  <metadata
     id="metadata10">
    <rdf:RDF>
      <cc:Work
         rdf:about="">
        <dc:format>image/svg+xml</dc:format>
        <dc:type
           rdf:resource="http://purl.org/dc/dcmitype/StillImage" />
        <dc:title></dc:title>
      </cc:Work>
    </rdf:RDF>
  </metadata>
  <defs
     id="defs8" />
  <path
     style="fill:#000000;fill-opacity:1"
     id="path2"
     fill="#ffffff"
     d="m 512,12.624124 c -282.75,0 -512,229.250006 -512,512.000006 0,226.25 146.688,418.125 350.156,485.81207 25.594,4.688 34.938,-11.12507 34.938,-24.62507 0,-12.188 -0.469,-52.562 -0.719,-95.312 -142.375,30.937 -172.469,-60.375 -172.469,-60.375 -23.312,-59.125 -56.844,-74.875 -56.844,-74.875 -46.531,-31.75 3.53,-31.125 3.53,-31.125 51.406,3.562 78.47,52.75 78.47,52.75 45.688,78.25 119.875,55.625 149,42.5 4.654,-33 17.904,-55.625 32.5,-68.375 -113.656,-12.937 -233.218,-56.875 -233.218,-253.063 0,-55.938 19.969,-101.562 52.656,-137.406 -5.219,-13 -22.844,-65.094 5.062,-135.562 0,0 42.938,-13.75 140.812,52.5 40.812,-11.406 84.594,-17.031 128.125,-17.219 43.5,0.188 87.312,5.875 128.188,17.281 97.688,-66.312 140.688,-52.5 140.688,-52.5 28,70.531 10.375,122.562 5.125,135.5 32.812,35.844 52.625,81.469 52.625,137.406 0,196.688 -119.75,240 -233.812,252.688 18.438,15.875 34.75,47 34.75,94.75 0,68.438 -0.688,123.625 -0.688,140.5 0,13.625 9.312,29.56207 35.25,24.56207 C 877.438,942.62413 1024,750.74913 1024,524.62413 1024,241.87413 794.75,12.624124 512,12.624124 Z" />
</svg>
