<?xml version="1.0" encoding="UTF-8" standalone="no"?>
<svg
   xmlns:dc="http://purl.org/dc/elements/1.1/"
   xmlns:cc="http://creativecommons.org/ns#"
   xmlns:rdf="http://www.w3.org/1999/02/22-rdf-syntax-ns#"
   xmlns:svg="http://www.w3.org/2000/svg"
   xmlns="http://www.w3.org/2000/svg"
   id="svg8"
   version="1.1"
   viewBox="0 0 101.6 50.800001"
   height="192"
   width="384">
  <title
     id="title839">ATPC</title>
  <defs
     id="defs2">
    <rect
       x="-21.695833"
       y="2.3812499"
       width="109.27292"
       height="50.667709"
       id="rect840" />
    <rect
       id="rect847"
       height="40.624969"
       width="62.140163"
       y="43.297665"
       x="-22.851545" />
    <rect
       id="rect835"
       height="62.819644"
       width="122.86116"
       y="13.134673"
       x="2.5513394" />
  </defs>
  <metadata
     id="metadata5">
    <rdf:RDF>
      <cc:Work
         rdf:about="">
        <dc:format>image/svg+xml</dc:format>
        <dc:type
           rdf:resource="http://purl.org/dc/dcmitype/StillImage" />
        <dc:title>ATPC</dc:title>
      </cc:Work>
    </rdf:RDF>
  </metadata>
  <g
     id="layer1">
    <g
       style="font-style:normal;font-variant:normal;font-weight:normal;font-stretch:normal;font-size:50.8px;line-height:125%;font-family:Staatliches;-inkscape-font-specification:Staatliches;letter-spacing:5.82083px;word-spacing:0px;white-space:pre;shape-inside:url(#rect835);fill:#ffffff;fill-opacity:1;stroke:none;stroke-width:0.264583px;stroke-linecap:butt;stroke-linejoin:miter;stroke-opacity:1"
       id="text833"
       transform="translate(-2.4571135,-14.988965)"
       aria-label="ATPC">
      <path
         style="fill:#ffffff;fill-opacity:1"
         id="path840"
         d="m 2.8555812,57.838765 6.2992,-34.8996 q 0.0508,-0.2032 0.2539999,-0.2032 h 7.3659999 q 0.2032,0 0.254,0.2032 l 6.0452,34.8996 q 0.0508,0.254 -0.2032,0.254 h -5.6388 q -0.2032,0 -0.254,-0.254 l -0.5588,-3.7084 H 9.5103811 l -0.5587999,3.7084 q -0.0508,0.254 -0.254,0.254 h -5.6388 q -0.2032,0 -0.2032,-0.254 z m 7.6707998,-9.144 h 4.8768 l -2.0828,-14.2748 -0.3048,-1.8796 -0.2032,1.8796 z" />
      <path
         style="fill:#ffffff;fill-opacity:1"
         id="path842"
         d="m 34.732048,58.092765 q -0.2032,0 -0.2032,-0.254 v -28.956 h -6.603999 q -0.254,0 -0.254,-0.254 l 0.0508,-5.6896 q 0,-0.2032 0.2032,-0.2032 h 19.303999 q 0.254,0 0.254,0.2032 v 5.6896 q 0,0.254 -0.2032,0.254 h -6.6548 l 0.0508,28.956 q 0,0.254 -0.2032,0.254 z" />
      <path
         style="fill:#ffffff;fill-opacity:1"
         id="path844"
         d="m 56.066724,58.092765 q -0.254,0 -0.254,-0.254 l 0.1016,-34.8996 q 0,-0.2032 0.2032,-0.2032 h 9.753599 q 4.6736,0 7.366,2.8448 2.7432,2.8448 2.7432,7.7216 0,3.6068 -1.4224,6.2484 -1.4224,2.6416 -3.7084,4.064 -2.286,1.4224 -4.9784,1.4224 h -3.8608 v 12.8016 q 0,0.254 -0.254,0.254 z m 5.943599,-19.2024 h 3.8608 q 1.6256,0 2.794,-1.524 1.2192,-1.5748 1.2192,-4.064 0,-1.9812 -1.0668,-3.2512 -1.0668,-1.27 -2.9464,-1.27 l -3.8608,0.0508 z" />
      <path
         style="fill:#ffffff;fill-opacity:1"
         id="path846"
         d="m 93.701847,58.600765 q -2.794,0 -5.08,-1.3716 -2.2352,-1.4224 -3.556,-3.7592 -1.3208,-2.3368 -1.3208,-5.2324 l 0.0508,-15.8496 q 0,-2.794 1.27,-5.08 1.3208,-2.3368 3.556,-3.7084 2.286,-1.4224 5.08,-1.4224 2.794,0 5.0292,1.3716 2.235203,1.3716 3.556003,3.7084 1.3208,2.286 1.3208,5.1308 v 2.3368 q 0,0.2032 -0.2032,0.2032 h -5.689603 q -0.2032,0 -0.2032,-0.2032 v -2.3368 q 0,-1.6764 -1.1176,-2.8956 -1.0668,-1.2192 -2.6924,-1.2192 -1.8288,0 -2.794,1.27 -0.9652,1.2192 -0.9652,2.8448 v 15.8496 q 0,1.8796 1.0668,3.048 1.1176,1.1684 2.6924,1.1684 1.6256,0 2.6924,-1.27 1.1176,-1.3208 1.1176,-2.9464 v -2.3368 q 0,-0.2032 0.2032,-0.2032 h 5.740403 q 0.2032,0 0.2032,0.2032 v 2.3368 q 0,2.8956 -1.3716,5.2324 -1.3208,2.3368 -3.556003,3.7592 -2.2352,1.3716 -5.0292,1.3716 z" />
    </g>
    <text
       xml:space="preserve"
       id="text838"
       style="font-style:normal;font-weight:normal;font-size:4.63021px;line-height:125%;font-family:sans-serif;letter-spacing:0px;word-spacing:0px;white-space:pre;shape-inside:url(#rect840);fill:#000000;fill-opacity:1;stroke:none;stroke-width:0.264583px;stroke-linecap:butt;stroke-linejoin:miter;stroke-opacity:1;" />
  </g>
</svg>
